<?xml version="1.0" encoding="utf-8"?>
<!-- Generator: Adobe Illustrator 18.0.0, SVG Export Plug-In . SVG Version: 6.00 Build 0)  -->
<!DOCTYPE svg PUBLIC "-//W3C//DTD SVG 1.1//EN" "http://www.w3.org/Graphics/SVG/1.1/DTD/svg11.dtd">
<svg version="1.1" id="Layer_1" xmlns="http://www.w3.org/2000/svg" xmlns:xlink="http://www.w3.org/1999/xlink" x="0px" y="0px"
	 viewBox="0 0 67 67" enable-background="new 0 0 67 67" xml:space="preserve">
<rect fill="#E19126" width="67" height="67"/>
<path opacity="0.25" fill="#FFFFFF" d="M44.2,46.3h5.1c0-14.6-11.9-26.5-26.5-26.5v5.1C34.5,24.8,44.2,34.4,44.2,46.3z"/>
<path opacity="0.25" fill="#FFFFFF" d="M35.1,46.3L35.1,46.3h5.1c0-9.7-7.9-17.5-17.5-17.5v5.1c3.3,0,6.4,1.3,8.8,3.6
	C33.9,39.8,35.1,42.9,35.1,46.3z"/>
<path opacity="0.25" fill="#FFFFFF" d="M26.3,46.3c2,0,3.5-1.6,3.5-3.5c0-1.9-1.6-3.5-3.5-3.5c-1.9,0-3.5,1.6-3.5,3.5
	C22.7,44.7,24.3,46.3,26.3,46.3z"/>
</svg>
