<?xml version="1.0" encoding="utf-8"?>
<!-- Generator: Adobe Illustrator 18.0.0, SVG Export Plug-In . SVG Version: 6.00 Build 0)  -->
<!DOCTYPE svg PUBLIC "-//W3C//DTD SVG 1.1//EN" "http://www.w3.org/Graphics/SVG/1.1/DTD/svg11.dtd">
<svg version="1.1" id="Layer_1" xmlns="http://www.w3.org/2000/svg" xmlns:xlink="http://www.w3.org/1999/xlink" x="0px" y="0px"
	 viewBox="0 0 67 67" enable-background="new 0 0 67 67" xml:space="preserve">
<rect fill="#CF3427" width="67" height="67"/>
<path opacity="0.25" fill="#FFFFFF" d="M33,33c0,0,12.1,0,13.5,1.5c1.4,1.4,1.5,8.5,1.5,8.6c0,0,0,7.1-1.5,8.6C45.1,53,33,53,33,53
	s-12.1,0-13.5-1.5C18,50.1,18,43,18,43c0,0,0-7.1,1.4-8.6C20.9,33,33,33,33,33z"/>
<path opacity="0.25" fill="#FFFFFF" d="M42.5,29.3h-2v-1.1c-0.4,0.4-0.7,0.7-1.1,0.9c-0.4,0.2-0.8,0.3-1.1,0.3c-0.5,0-0.8-0.1-1-0.4
	c-0.2-0.3-0.3-0.7-0.3-1.3v-8.2h2V27c0,0.2,0,0.4,0.1,0.5c0.1,0.1,0.2,0.2,0.4,0.2c0.1,0,0.3-0.1,0.5-0.2c0.2-0.1,0.4-0.3,0.6-0.5
	v-7.4h2V29.3L42.5,29.3z"/>
<path fill="#CF3427" d="M41.7,44.7v1.7c0,0.5,0.1,0.8,0.2,1c0.1,0.2,0.3,0.3,0.6,0.3c0.3,0,0.5-0.1,0.6-0.2c0.1-0.2,0.2-0.5,0.2-1
	v-0.4h1.8v0.5c0,0.9-0.2,1.6-0.7,2.1c-0.4,0.5-1.1,0.7-2,0.7c-0.8,0-1.4-0.2-1.8-0.7c-0.4-0.5-0.7-1.2-0.7-2v-4
	c0-0.8,0.2-1.4,0.7-1.9c0.5-0.5,1.1-0.7,1.9-0.7c0.8,0,1.4,0.2,1.8,0.7c0.4,0.4,0.6,1.1,0.6,1.9v2.3L41.7,44.7L41.7,44.7z"/>
<path opacity="0.25" fill="#FFFFFF" d="M42.5,41.3c-0.3,0-0.5,0.1-0.6,0.2c-0.1,0.2-0.2,0.4-0.2,0.8v0.9h1.5v-0.9
	c0-0.4-0.1-0.6-0.2-0.8C43,41.4,42.8,41.3,42.5,41.3z"/>
<path fill="#CF3427" d="M38.6,48.5C38.4,48.8,38,49,37.4,49c-0.3,0-0.6-0.1-0.9-0.2c-0.3-0.1-0.5-0.3-0.7-0.6v0.7H34v-12h1.8v3.9
	c0.2-0.3,0.5-0.5,0.7-0.6c0.3-0.1,0.5-0.2,0.8-0.2c0.6,0,1,0.2,1.3,0.6c0.3,0.4,0.4,0.9,0.4,1.7V47C39,47.7,38.9,48.2,38.6,48.5z"/>
<path opacity="0.25" fill="#FFFFFF" d="M36.5,41.3c0.2,0,0.4,0.1,0.5,0.2c0.1,0.2,0.2,0.4,0.2,0.7v4.6c0,0.3-0.1,0.5-0.2,0.6
	c-0.1,0.1-0.3,0.2-0.5,0.2c-0.1,0-0.3,0-0.4-0.1c-0.1-0.1-0.3-0.2-0.4-0.3v-5.5c0.1-0.1,0.2-0.2,0.4-0.3
	C36.3,41.3,36.4,41.3,36.5,41.3z"/>
<path fill="#CF3427" d="M31,48.9v-1c-0.3,0.4-0.7,0.6-1,0.8c-0.3,0.2-0.7,0.3-1,0.3c-0.4,0-0.7-0.1-0.9-0.4
	c-0.2-0.3-0.3-0.7-0.3-1.2V40h1.7v6.8c0,0.2,0,0.4,0.1,0.5c0.1,0.1,0.2,0.1,0.4,0.1c0.1,0,0.3-0.1,0.5-0.2c0.2-0.1,0.4-0.3,0.5-0.5
	V40h1.7v8.9H31L31,48.9z"/>
<polygon fill="#CF3427" points="24.9,38.6 24.9,48.9 22.9,48.9 22.9,38.6 20.9,38.6 20.9,36.9 27,36.9 27,38.6 "/>
<path opacity="0.25" fill="#FFFFFF" d="M30.4,19.9c0.5-0.4,1.2-0.7,2.1-0.7c0.8,0,1.5,0.2,2,0.7c0.5,0.5,0.8,1.1,0.8,1.8v5.1
	c0,0.8-0.3,1.5-0.8,2c-0.5,0.5-1.2,0.7-2.1,0.7c-0.9,0-1.5-0.2-2.1-0.7c-0.5-0.5-0.8-1.2-0.8-2v-5.1C29.6,21,29.9,20.4,30.4,19.9z"
	/>
<polygon opacity="0.25" fill="#FFFFFF" points="24.3,16 22,16 24.7,24 24.7,29.3 26.9,29.3 26.9,23.8 29.5,16 27.2,16 25.8,21.3 
	25.7,21.3 "/>
<path fill="#CF3427" d="M31.8,27.6c0.1,0.1,0.3,0.2,0.6,0.2c0.3,0,0.5-0.1,0.6-0.2c0.2-0.2,0.2-0.4,0.2-0.6v-5.3
	c0-0.2-0.1-0.4-0.2-0.5c-0.2-0.1-0.4-0.2-0.6-0.2c-0.2,0-0.4,0.1-0.6,0.2c-0.1,0.1-0.2,0.3-0.2,0.5V27
	C31.6,27.2,31.7,27.4,31.8,27.6z"/>
</svg>
